<mxfile host="app.diagrams.net" modified="2020-11-10T02:25:37.864Z" agent="5.0 (Windows NT 10.0; Win64; x64) AppleWebKit/537.36 (KHTML, like Gecko) Chrome/88.0.4315.5 Safari/537.36" etag="66OvEl2QJ3vsB3uAs9aM" version="13.9.2" type="github">
  <diagram id="WFKDlzGz7BwXd_2-W6tO" name="Page-1">
    <mxGraphModel dx="942" dy="582" grid="1" gridSize="10" guides="1" tooltips="1" connect="1" arrows="1" fold="1" page="1" pageScale="1" pageWidth="850" pageHeight="1100" math="0" shadow="0">
      <root>
        <mxCell id="0" />
        <mxCell id="1" parent="0" />
        <mxCell id="DZGaQ_x3zY8NhL7elip0-18" value="" style="rounded=0;whiteSpace=wrap;html=1;align=center;fillColor=#f5f5f5;strokeColor=#666666;fontColor=#333333;" vertex="1" parent="1">
          <mxGeometry x="40" y="280" width="880" height="330" as="geometry" />
        </mxCell>
        <mxCell id="DZGaQ_x3zY8NhL7elip0-19" value="Kênh bán hàng" style="text;html=1;strokeColor=none;fillColor=none;align=center;verticalAlign=middle;whiteSpace=wrap;rounded=0;fontStyle=1;fontSize=16;" vertex="1" parent="1">
          <mxGeometry x="60" y="300" width="130" height="20" as="geometry" />
        </mxCell>
        <mxCell id="DZGaQ_x3zY8NhL7elip0-21" value="Thêm kênh" style="rounded=1;whiteSpace=wrap;html=1;fontSize=16;align=center;" vertex="1" parent="1">
          <mxGeometry x="70" y="410" width="120" height="30" as="geometry" />
        </mxCell>
        <mxCell id="DZGaQ_x3zY8NhL7elip0-22" value="Quản lý hoạt động của tất cả kênh bán hàng chỉ bằng một ứng dụng" style="text;html=1;strokeColor=none;fillColor=none;align=left;verticalAlign=middle;whiteSpace=wrap;rounded=0;fontSize=12;" vertex="1" parent="1">
          <mxGeometry x="60" y="340" width="160" height="60" as="geometry" />
        </mxCell>
        <mxCell id="DZGaQ_x3zY8NhL7elip0-23" value="" style="group;" vertex="1" connectable="0" parent="1">
          <mxGeometry x="250" y="350" width="640" height="160" as="geometry" />
        </mxCell>
        <mxCell id="DZGaQ_x3zY8NhL7elip0-2" value="" style="rounded=0;whiteSpace=wrap;html=1;" vertex="1" parent="DZGaQ_x3zY8NhL7elip0-23">
          <mxGeometry width="640" height="160" as="geometry" />
        </mxCell>
        <mxCell id="DZGaQ_x3zY8NhL7elip0-3" value="Đồng bộ với kênh bán hàng lazada" style="text;html=1;strokeColor=none;fillColor=none;align=center;verticalAlign=middle;whiteSpace=wrap;rounded=0;" vertex="1" parent="DZGaQ_x3zY8NhL7elip0-23">
          <mxGeometry x="10" y="10" width="210" height="20" as="geometry" />
        </mxCell>
        <mxCell id="DZGaQ_x3zY8NhL7elip0-6" value="Lưu ý: &lt;br&gt;- Sản phẩm bạn đã đăng bán trên phầm mềm trước khi đồng bộ lần đầu trên lazada sẽ &lt;b&gt;không được&lt;/b&gt; đồng bộ với lazada&lt;br&gt;- Nếu bạn không đăng nhập vào phần mềm quá 30 ngày thì bạn cần phải đồng bộ lại" style="text;html=1;strokeColor=none;fillColor=none;align=left;verticalAlign=middle;whiteSpace=wrap;rounded=0;" vertex="1" parent="DZGaQ_x3zY8NhL7elip0-23">
          <mxGeometry x="20" y="40" width="350" height="70" as="geometry" />
        </mxCell>
        <mxCell id="DZGaQ_x3zY8NhL7elip0-7" value="Tự động refresh token" style="text;html=1;strokeColor=none;fillColor=none;align=center;verticalAlign=middle;whiteSpace=wrap;rounded=0;" vertex="1" parent="DZGaQ_x3zY8NhL7elip0-23">
          <mxGeometry x="32" y="126" width="130" height="20" as="geometry" />
        </mxCell>
        <mxCell id="DZGaQ_x3zY8NhL7elip0-14" value="" style="whiteSpace=wrap;html=1;aspect=fixed;align=left;" vertex="1" parent="DZGaQ_x3zY8NhL7elip0-23">
          <mxGeometry x="22" y="131" width="10" height="10" as="geometry" />
        </mxCell>
        <mxCell id="DZGaQ_x3zY8NhL7elip0-15" value="" style="shape=mxgraph.bpmn.shape;html=1;verticalLabelPosition=bottom;labelBackgroundColor=#ffffff;verticalAlign=top;align=center;perimeter=ellipsePerimeter;outlineConnect=0;outline=boundInt;symbol=error;rotation=-110;" vertex="1" parent="DZGaQ_x3zY8NhL7elip0-23">
          <mxGeometry x="510" y="20" width="94" height="94" as="geometry" />
        </mxCell>
        <mxCell id="DZGaQ_x3zY8NhL7elip0-16" value="Đồng bộ kênh" style="rounded=1;whiteSpace=wrap;html=1;align=center;fillColor=#cdeb8b;strokeColor=#36393d;" vertex="1" parent="DZGaQ_x3zY8NhL7elip0-23">
          <mxGeometry x="511" y="122" width="120" height="30" as="geometry" />
        </mxCell>
        <mxCell id="DZGaQ_x3zY8NhL7elip0-17" value="Tắt kênh" style="rounded=1;whiteSpace=wrap;html=1;align=center;fillColor=#eeeeee;strokeColor=#36393d;" vertex="1" parent="DZGaQ_x3zY8NhL7elip0-23">
          <mxGeometry x="396" y="122" width="105" height="30" as="geometry" />
        </mxCell>
        <mxCell id="DZGaQ_x3zY8NhL7elip0-26" value="" style="line;strokeWidth=1;html=1;fontSize=12;align=left;rotation=0;strokeColor=#CCCCCC;" vertex="1" parent="1">
          <mxGeometry x="65" y="324" width="825" height="10" as="geometry" />
        </mxCell>
      </root>
    </mxGraphModel>
  </diagram>
</mxfile>
